<svg id="Capa_1" data-name="Capa 1" xmlns="http://www.w3.org/2000/svg" xmlns:xlink="http://www.w3.org/1999/xlink" width="31.88" height="32" viewBox="0 0 31.88 32"><defs><style>.cls-1{fill:#00672a;}.cls-2{fill:url(#Degradado_sin_nombre_8);}.cls-3{fill:url(#Degradado_sin_nombre_8-2);}.cls-4{fill:url(#Degradado_sin_nombre_22);}.cls-5{fill:url(#Degradado_sin_nombre_8-3);}</style><linearGradient id="Degradado_sin_nombre_8" x1="22.09" y1="37.1" x2="5.89" y2="10.59" gradientUnits="userSpaceOnUse"><stop offset="0" stop-color="#91b400"/><stop offset="0.5" stop-color="#228102"/><stop offset="1" stop-color="#002000"/></linearGradient><linearGradient id="Degradado_sin_nombre_8-2" x1="23.64" y1="16.88" x2="7.76" y2="32.19" xlink:href="#Degradado_sin_nombre_8"/><linearGradient id="Degradado_sin_nombre_22" x1="18.2" y1="18.99" x2="35.92" y2="18.99" gradientUnits="userSpaceOnUse"><stop offset="0.5" stop-color="#228102"/><stop offset="1" stop-color="#002000"/></linearGradient><linearGradient id="Degradado_sin_nombre_8-3" x1="0.15" y1="11.77" x2="19.61" y2="11.77" xlink:href="#Degradado_sin_nombre_8"/></defs><circle class="cls-1" cx="9.03" cy="27.09" r="0.33"/><circle class="cls-1" cx="15.4" cy="21.44" r="0.33"/><circle class="cls-1" cx="20.62" cy="23.69" r="0.33"/><circle class="cls-1" cx="20.23" cy="24.39" r="0.33"/><path class="cls-2" d="M1.32,5.67,11,26.36s3.61-1.88,4.15-4.31L11.31,12.4A10.72,10.72,0,0,0,7.42,7.5,10.26,10.26,0,0,0,1.32,5.67Z"/><path class="cls-3" d="M25,15.86a5.37,5.37,0,0,0-5.67.86,6.78,6.78,0,0,0-2,2.8c-.92,2.33-3.64,8.17-7.7,7.78,0,0,4.67,2.71,8.53-.8a7.89,7.89,0,0,0,1.71-2.25,19.08,19.08,0,0,0,1-2.25,17.43,17.43,0,0,1,1.45-3.24C23.12,17.49,24.19,16.07,25,15.86Z"/><path class="cls-4" d="M31.73,16.42s-2.12,4.83-6.92.37c0,0-2.78,3-3.53,5.47a1.92,1.92,0,0,1-.48.81h0a.06.06,0,0,1-.1-.06c.28-1,1.49-4.62,3.95-6.53l.16-.13c.24-.2,1.75-1.26,4.86.61,0,0-1.89-2-4.23-1.13,0,0,1.36-2.07,4.17-.07a3.8,3.8,0,0,0,.93.5A2.47,2.47,0,0,0,31.73,16.42Z"/><path class="cls-1" d="M19.67,25.11s-2.76,5.22-9.83,2.65C9.84,27.76,16.64,31.19,19.67,25.11Z"/><path class="cls-5" d="M7.19,6.31s-6,2.94-7-3.63c0,0,.51.88,2.79.45a5,5,0,0,1,1.49-.07A2.68,2.68,0,0,1,7,5a4.77,4.77,0,0,0-4.82-.82S6.16,3.16,10,8.59a16.91,16.91,0,0,1,1.8,3.25l3.41,8.08a1,1,0,0,1,.07.6.4.4,0,0,1-.2.33A.08.08,0,0,1,15,20.8L11.32,12A15.23,15.23,0,0,0,8.5,7.54,9.27,9.27,0,0,0,7.19,6.31Z"/></svg>