<svg xmlns="http://www.w3.org/2000/svg" width="123.92" height="124.39" viewBox="0 0 123.92 124.39"><defs><style>.cls-1{fill:#fff;}.cls-2,.cls-3{fill:#6ec93f;}.cls-3{stroke:#6ec93f;stroke-miterlimit:10;}</style></defs><g id="Capa_2" data-name="Capa 2"><g id="Capa_1-2" data-name="Capa 1"><rect class="cls-1" x="16.63" y="31.82" width="91.76" height="60.76"/><path class="cls-2" d="M62.2,6A56.22,56.22,0,1,0,118.41,62.2,56.22,56.22,0,0,0,62.2,6ZM98,76.3l-.39,0a11,11,0,0,1-9.74,8.91c-5.84.54-14.53,1.1-25.75,1.1-11.66,0-20.15-.52-25.78-1a11,11,0,0,1-9.75-9l-.34,0a6.71,6.71,0,0,1-6.06-6.09c-.18-2.08-.33-4.78-.33-8.16s.16-6,.36-8.16A6.69,6.69,0,0,1,22,50V42.85a1.59,1.59,0,0,1,1.59-1.59,1.55,1.55,0,0,1,1.12.47,1.57,1.57,0,0,1,.47,1.12V48a7.93,7.93,0,0,1,1.12-.2l.36,0a10.94,10.94,0,0,1,9.76-9c5.83-.54,14.51-1.09,25.72-1.09,11.67,0,20.16.51,25.79,1a10.93,10.93,0,0,1,9.75,9l.31,0a8.19,8.19,0,0,1,1.12.2V42.85a1.57,1.57,0,0,1,.47-1.12,1.55,1.55,0,0,1,1.12-.47,1.59,1.59,0,0,1,1.59,1.59V50A6.69,6.69,0,0,1,104,53.89c.2,2.14.36,4.87.36,8.16s-.15,6.08-.33,8.16A6.71,6.71,0,0,1,98,76.3Z"/><path class="cls-2" d="M.5,62.2A61.7,61.7,0,0,1,62,.5h-.23a61.7,61.7,0,1,0,0,123.39H62A61.7,61.7,0,0,1,.5,62.2Z"/><path class="cls-2" d="M87.4,43.87c-5-.46-13.41-1-25.31-1-11.35,0-20,.59-25.25,1.08a5.86,5.86,0,0,0-5.3,5.28c-.37,4-.56,8.33-.56,12.84,0,4.67.17,9,.52,12.85a5.86,5.86,0,0,0,5.29,5.33c7.14.67,15.89,1,25.3,1,11.36,0,20-.58,25.27-1.07a5.88,5.88,0,0,0,5.29-5.28c.37-4,.56-8.34.56-12.85,0-4.68-.18-9-.52-12.88A5.87,5.87,0,0,0,87.4,43.87ZM48.92,63.49a4.43,4.43,0,0,1-4.43,4.44h0a4.44,4.44,0,0,1-4.44-4.44V58.56a4.44,4.44,0,0,1,4.44-4.44h0a4.43,4.43,0,0,1,4.43,4.44Zm17.86,4.27a4.8,4.8,0,0,1-1.21,2,4.92,4.92,0,0,1-8.16-2,1.15,1.15,0,0,1,1.1-1.5h7.17A1.15,1.15,0,0,1,66.78,67.76Zm17.36-4.27a4.44,4.44,0,0,1-4.44,4.44h0a4.44,4.44,0,0,1-4.44-4.44V58.56a4.44,4.44,0,0,1,4.44-4.44h0a4.44,4.44,0,0,1,4.44,4.44Z"/><path class="cls-2" d="M62.2.5H62a61.7,61.7,0,0,1,0,123.39h.24A61.7,61.7,0,0,0,62.2.5Z"/><path class="cls-3" d="M123.42,62.2A61.46,61.46,0,1,0,62,123.89,61.7,61.7,0,0,0,123.42,62.2ZM62.2,118.41A56.22,56.22,0,1,1,118.41,62.2,56.22,56.22,0,0,1,62.2,118.41Z"/></g></g></svg>