<svg xmlns="http://www.w3.org/2000/svg" xmlns:xlink="http://www.w3.org/1999/xlink" width="1045.14" height="751.03" viewBox="0 0 1045.14 751.03"><defs><style>.cls-1{fill:url(#Degradado_sin_nombre_8);}.cls-2{fill:url(#Degradado_sin_nombre_8-2);}.cls-3{fill:#00672a;}.cls-4{fill:url(#Degradado_sin_nombre_8-3);}.cls-5{fill:url(#Degradado_sin_nombre_8-4);}.cls-6{fill:url(#Degradado_sin_nombre_22);}.cls-7{fill:url(#Degradado_sin_nombre_8-5);}.cls-8{stroke:#000;stroke-miterlimit:10;stroke-width:2px;}.cls-9{fill:none;}</style><linearGradient id="Degradado_sin_nombre_8" x1="0.29" y1="725.7" x2="290.48" y2="725.7" gradientUnits="userSpaceOnUse"><stop offset="0" stop-color="#91b400"/><stop offset="0.5" stop-color="#228102"/><stop offset="1" stop-color="#002000"/></linearGradient><linearGradient id="Degradado_sin_nombre_8-2" x1="802.81" y1="725.7" x2="1122.57" y2="725.7" xlink:href="#Degradado_sin_nombre_8"/><linearGradient id="Degradado_sin_nombre_8-3" x1="641.99" y1="668.42" x2="327.38" y2="153.46" xlink:href="#Degradado_sin_nombre_8"/><linearGradient id="Degradado_sin_nombre_8-4" x1="672.11" y1="275.78" x2="363.76" y2="573.17" xlink:href="#Degradado_sin_nombre_8"/><linearGradient id="Degradado_sin_nombre_22" x1="566.42" y1="316.65" x2="910.62" y2="316.65" gradientUnits="userSpaceOnUse"><stop offset="0.5" stop-color="#228102"/><stop offset="1" stop-color="#002000"/></linearGradient><linearGradient id="Degradado_sin_nombre_8-5" x1="215.92" y1="176.47" x2="593.92" y2="176.47" xlink:href="#Degradado_sin_nombre_8"/></defs><g id="Capa_2" data-name="Capa 2"><g id="Capa_1-2" data-name="Capa 1"><rect class="cls-1" x="0.29" y="720.22" width="245.1" height="10.96"/><rect class="cls-2" x="802.81" y="720.22" width="242.04" height="10.96"/><path d="M306.6,739.66h0a1.85,1.85,0,0,1-.07,2.83,33.12,33.12,0,1,1,0-51.83,1.87,1.87,0,0,1,.07,2.84h0a1.83,1.83,0,0,1-2.36.07,28.37,28.37,0,0,0-18.31-6.37,29.6,29.6,0,0,0-21.28,9.1,29.4,29.4,0,0,0,39.59,43.28A1.84,1.84,0,0,1,306.6,739.66Z"/><path d="M317.39,725.79a16.12,16.12,0,0,0-.13,2.66,18.44,18.44,0,0,0,5.68,12.65,18.35,18.35,0,0,0,25.64-.35c.31-.31.6-.62.89-.94a1.93,1.93,0,0,1,2.07-.55l.12,0a1.9,1.9,0,0,1,.74,3.11c-.32.34-.68.7-1.07,1.08a22.18,22.18,0,1,1,0-31.37A18.74,18.74,0,0,1,357,724a1.63,1.63,0,0,1-1.62,1.75Zm.69-3.7h32.48a1.63,1.63,0,0,0,1.47-2.33,17.28,17.28,0,0,0-3.45-4.9,18.35,18.35,0,0,0-26,0A18.68,18.68,0,0,0,318.08,722.09Z"/><path d="M364.87,722v26.11a1.8,1.8,0,0,1-1.8,1.81H363a1.8,1.8,0,0,1-1.8-1.81V712a1.82,1.82,0,0,1,1.82-1.83h0a1.82,1.82,0,0,1,1.83,1.83v.73a15.83,15.83,0,0,1,11.53-4.94,15.54,15.54,0,0,1,11.46,4.42,15.35,15.35,0,0,1,4.5,11.09v24.76a1.81,1.81,0,0,1-1.81,1.81h0a1.81,1.81,0,0,1-1.8-1.81v-24.4a11.62,11.62,0,0,0-3.66-8.64,12.36,12.36,0,0,0-17.33,0h0A9.89,9.89,0,0,0,364.87,722Z"/><path d="M405.45,710.19V695.12a1.8,1.8,0,0,1,1.8-1.8h0a1.81,1.81,0,0,1,1.81,1.8v15.07h6.29a1.81,1.81,0,0,1,1.8,1.81v0a1.81,1.81,0,0,1-1.8,1.8h-6.29v34.23a1.81,1.81,0,0,1-1.81,1.81h0a1.8,1.8,0,0,1-1.8-1.81V713.85h-6.29a1.81,1.81,0,0,1-1.81-1.8v0a1.81,1.81,0,0,1,1.81-1.81Z"/><path d="M437,711.35a1.86,1.86,0,0,1-.93,2.64,15.42,15.42,0,0,0-5.54,4.34q-3.75,4.35-3.75,8.78v20.95a1.83,1.83,0,0,1-1.83,1.83h0a1.83,1.83,0,0,1-1.83-1.83V712a1.83,1.83,0,0,1,1.83-1.83h0A1.83,1.83,0,0,1,426.8,712v6.77a15.15,15.15,0,0,1,7.75-8.18,1.88,1.88,0,0,1,2.47.74Z"/><path d="M462.66,706.63A22.19,22.19,0,1,1,447,713.12,21.35,21.35,0,0,1,462.66,706.63Zm-13,9.23a18.34,18.34,0,0,0,25.93,25.93,18.34,18.34,0,1,0-25.93-25.93Z"/><path d="M518.55,722v26.12a1.81,1.81,0,0,1-1.81,1.81h0a1.81,1.81,0,0,1-1.81-1.81V712a1.83,1.83,0,0,1,1.83-1.83h0a1.83,1.83,0,0,1,1.83,1.83v.73a15.79,15.79,0,0,1,11.52-4.94,15.27,15.27,0,0,1,16,15.51v24.76a1.81,1.81,0,0,1-1.81,1.81h0a1.81,1.81,0,0,1-1.81-1.81v-24.4a11.62,11.62,0,0,0-3.66-8.64,12.36,12.36,0,0,0-17.33,0h0A9.91,9.91,0,0,0,518.55,722Z"/><path d="M595,749.89h0a1.83,1.83,0,0,1-1.83-1.83v-6.27a28.15,28.15,0,0,1-2.29,2.7,22.18,22.18,0,1,1,0-31.37,28.15,28.15,0,0,1,2.29,2.7V712a1.83,1.83,0,0,1,1.83-1.83h0A1.82,1.82,0,0,1,596.8,712v36A1.82,1.82,0,0,1,595,749.89Zm-1.83-17.47v-7.18a18.18,18.18,0,1,0,0,7.18Z"/><path d="M609.43,710.19V695.12a1.81,1.81,0,0,1,1.81-1.8h0a1.81,1.81,0,0,1,1.81,1.8v15.07h6.28a1.81,1.81,0,0,1,1.81,1.81v0a1.81,1.81,0,0,1-1.81,1.8h-6.28v34.23a1.81,1.81,0,0,1-1.81,1.81h0a1.81,1.81,0,0,1-1.81-1.81V713.85h-6.29a1.81,1.81,0,0,1-1.8-1.8v0a1.81,1.81,0,0,1,1.8-1.81Z"/><path d="M642,750.44q-7.46,0-11.85-4.39a15.53,15.53,0,0,1-4.53-11.12V712a1.83,1.83,0,0,1,1.83-1.83h0a1.83,1.83,0,0,1,1.83,1.83v22.63a11.57,11.57,0,0,0,3.66,8.6,12.22,12.22,0,0,0,9,3.61,11.91,11.91,0,0,0,8.67-3.59,11.68,11.68,0,0,0,3.63-8.62V712a1.83,1.83,0,0,1,1.83-1.83h0a1.83,1.83,0,0,1,1.83,1.83v22.95A15.25,15.25,0,0,1,642,750.44Z"/><path d="M679.25,711.35a1.85,1.85,0,0,1-.93,2.64,15.42,15.42,0,0,0-5.54,4.34q-3.75,4.35-3.75,8.78v22.78h-3.66V712a1.83,1.83,0,0,1,1.83-1.83h0A1.83,1.83,0,0,1,669,712v6.77a15.18,15.18,0,0,1,7.75-8.18,1.88,1.88,0,0,1,2.47.74Z"/><path d="M690.23,697.2a3.43,3.43,0,0,1,1.07,2.52,3.62,3.62,0,0,1-3.61,3.66,3.58,3.58,0,0,1-2.59-1,3.52,3.52,0,0,1-1.07-2.61,3.43,3.43,0,0,1,1.07-2.52,3.58,3.58,0,0,1,2.59-1.05A3.53,3.53,0,0,1,690.23,697.2Zm-.76,14.8v36.08a1.81,1.81,0,0,1-1.8,1.81h0a1.81,1.81,0,0,1-1.81-1.81V712a1.81,1.81,0,0,1,1.81-1.81h0A1.81,1.81,0,0,1,689.47,712Z"/><path d="M716.86,717.06h0a1.72,1.72,0,0,1-2.3-1.09,6.8,6.8,0,0,0-1.53-2.76,5.32,5.32,0,0,0-4-1.55,5.88,5.88,0,0,0-4.16,10.06,25.91,25.91,0,0,0,4.25,3.11,33.25,33.25,0,0,1,7.37,5,11.79,11.79,0,0,1-8.33,20.12,12,12,0,0,1-11.58-9.2,1.9,1.9,0,0,1,1.37-2.21h0a1.88,1.88,0,0,1,2.28,1.43,8.16,8.16,0,0,0,16.12-1.86,7.76,7.76,0,0,0-2.42-5.72,35.68,35.68,0,0,0-5.22-3.79,29.76,29.76,0,0,1-6.4-4.3A9.55,9.55,0,0,1,709.05,708a8.9,8.9,0,0,1,6.54,2.6,9,9,0,0,1,2.31,4.45A1.76,1.76,0,0,1,716.86,717.06Z"/><path d="M732.92,710.19V695.12a1.81,1.81,0,0,1,1.81-1.8h0a1.81,1.81,0,0,1,1.81,1.8v15.07h6.29a1.81,1.81,0,0,1,1.8,1.81v0a1.81,1.81,0,0,1-1.8,1.8h-6.29v34.23a1.81,1.81,0,0,1-1.81,1.81h0a1.81,1.81,0,0,1-1.81-1.81V713.85h-6.28a1.81,1.81,0,0,1-1.81-1.8v0a1.81,1.81,0,0,1,1.81-1.81Z"/><path d="M790.51,749.89h0a1.83,1.83,0,0,1-1.83-1.83v-6.27a25.53,25.53,0,0,1-2.29,2.7,22.18,22.18,0,1,1,0-31.37,25.53,25.53,0,0,1,2.29,2.7V712a1.83,1.83,0,0,1,1.83-1.83h0a1.83,1.83,0,0,1,1.83,1.83v36A1.83,1.83,0,0,1,790.51,749.89Zm-1.83-17.47v-7.18a18.18,18.18,0,1,0,0,7.18Z"/><circle class="cls-3" cx="388.42" cy="473.93" r="6.46"/><circle class="cls-3" cx="512.07" cy="364.37" r="6.46"/><circle class="cls-3" cx="613.42" cy="408.08" r="6.46"/><circle class="cls-3" cx="605.81" cy="421.53" r="6.46"/><path class="cls-4" d="M238.62,57.91l188.6,401.87s70-36.39,80.61-83.74L432.71,188.77a210.65,210.65,0,0,0-75.6-95.33C328.08,73.45,289,57.31,238.62,57.91Z"/><path class="cls-5" d="M699.05,255.91s-54.62-28.08-110,16.61A132,132,0,0,0,549.42,327c-17.86,45.2-70.8,158.7-149.59,151.16,0,0,90.69,52.51,165.61-15.52A157,157,0,0,0,598.79,419a381.85,381.85,0,0,0,19.46-43.73c8.06-21.69,16-43.46,28.32-63C662.12,287.55,682.75,259.92,699.05,255.91Z"/><path class="cls-6" d="M829.22,266.87s-41.21,93.65-134.34,7c0,0-54,57.5-68.56,106.3A37.23,37.23,0,0,1,617,395.89h0a1.2,1.2,0,0,1-2-1.18c5.43-18.39,28.91-89.61,76.75-126.83,1-.8,2.06-1.58,3-2.42,4.76-4,34-24.56,94.39,11.78,0,0-36.59-38.94-82.17-21.91,0,0,26.5-40.23,81.17-1.29a75.64,75.64,0,0,0,18.05,9.67C812.92,266.14,821.15,268,829.22,266.87Z"/><path class="cls-3" d="M595,435.65S541.49,536.87,404,487C404,487,536.14,553.57,595,435.65Z"/><path class="cls-7" d="M352.62,70.43S235.49,127.57,215.92,0c0,0,9.78,17.06,54.06,8.67a99.75,99.75,0,0,1,29-1.43c19.08,2,44.45,10.15,50.72,38.54,0,0-37.37-36.19-93.72-16,0,0,76.61-20.49,150.87,84.87a337.84,337.84,0,0,1,34.92,63.29L508,334.74a20.39,20.39,0,0,1,1.37,11.64c-.51,2.75-1.62,5.41-3.94,6.43a1.59,1.59,0,0,1-2.07-.87L432.81,181.1a298.76,298.76,0,0,0-54.67-86.86C369.83,85.1,361,76.57,352.62,70.43Z"/><rect x="549.72" y="558.02" width="17.22" height="104.7"/><rect x="947.02" y="557.22" width="16.7" height="105.65"/><path class="cls-8" d="M123,583.55H109.65V569.88H123Zm0,78.71H109.65V595.7H123Z"/><polygon points="81.55 557.32 50.42 634.78 19.42 557.32 0 557.32 42.61 663.55 58.56 663.55 101.04 557.32 81.55 557.32"/><rect x="200.91" y="557.41" width="16.4" height="103.24"/><path d="M201.3,595l-27,0c-26.86,0-38.63,14.15-38.63,33.72,0,20.16,13.52,34.12,33.89,34.12,15.45,0,26.52-7.17,32-15.89Zm-12,40.93a28.44,28.44,0,0,1-15.68,7.6c-17.77,2.25-20.6-14.29-20.6-14.29a9.89,9.89,0,0,1,1.06-6.92,18.49,18.49,0,0,1,16.48-9.82h29C200.12,627,194.25,631.34,189.35,635.91Z"/><rect x="729.43" y="557.41" width="16.4" height="103.24"/><path d="M729.82,595l-27,0c-26.87,0-38.63,14.15-38.63,33.72,0,20.16,13.52,34.12,33.88,34.12,15.46,0,26.52-7.17,32-15.89Zm-12,40.93a28.44,28.44,0,0,1-15.68,7.6c-17.77,2.25-20.6-14.29-20.6-14.29a9.94,9.94,0,0,1,1.06-6.92,18.49,18.49,0,0,1,16.48-9.82h29C728.64,627,722.77,631.34,717.87,635.91Z"/><rect x="852.52" y="557.41" width="16.4" height="103.24" transform="translate(1721.45 1218.07) rotate(-180)"/><path d="M868.33,647c5.44,8.72,16.51,15.89,32,15.89,20.37,0,33.89-14,33.89-34.12,0-19.57-11.77-33.72-38.63-33.72l-27,0Zm1.87-34.5h29a18.49,18.49,0,0,1,16.48,9.82,9.89,9.89,0,0,1,1.06,6.92s-2.83,16.54-20.6,14.29a28.44,28.44,0,0,1-15.68-7.6C875.58,631.34,869.71,627,870.2,612.48Z"/><rect x="293.94" y="594.98" width="17.48" height="65.67"/><path d="M294.23,595l-27,0c-26.87,0-38.63,14.15-38.63,33.72,0,20.16,13.52,34.12,33.89,34.12,15.45,0,26.51-7.17,31.95-15.89Zm-12,40.93a28.44,28.44,0,0,1-15.68,7.6c-17.77,2.25-20.6-14.29-20.6-14.29a9.94,9.94,0,0,1,1.06-6.92,18.49,18.49,0,0,1,16.48-9.82h29C293.06,627,287.19,631.34,282.28,635.91Z"/><rect x="821.94" y="594.98" width="17.48" height="65.67"/><path d="M822.23,595l-27,0c-26.87,0-38.63,14.15-38.63,33.72,0,20.16,13.52,34.12,33.89,34.12,15.45,0,26.51-7.17,31.95-15.89Zm-12,40.93a28.44,28.44,0,0,1-15.68,7.6c-17.77,2.25-20.6-14.29-20.6-14.29a9.94,9.94,0,0,1,1.06-6.92,18.49,18.49,0,0,1,16.48-9.82h29C821.06,627,815.19,631.34,810.28,635.91Z"/><rect x="518.28" y="594.98" width="17.48" height="65.67"/><path d="M518.58,595l-27,0c-26.87,0-38.63,14.15-38.63,33.72,0,20.16,13.52,34.12,33.89,34.12,15.45,0,26.51-7.17,31.95-15.89Zm-12,40.93a28.44,28.44,0,0,1-15.68,7.6c-17.77,2.25-20.6-14.29-20.6-14.29a9.94,9.94,0,0,1,1.06-6.92,18.49,18.49,0,0,1,16.48-9.82h29C517.4,627,511.53,631.34,506.63,635.91Z"/><path class="cls-9" d="M1045.14,609.88V595.17h-17.63A36.6,36.6,0,0,1,1045.14,609.88Z"/><path d="M1008.4,643.5a23.63,23.63,0,0,1-8-1.4,2.47,2.47,0,0,1-.35-4.5,12.28,12.28,0,0,1,2.91-1.13l29.71-7.26a16.18,16.18,0,0,0,12.48-14.82c0-.33,0-.67,0-1v-3.49a36.6,36.6,0,0,0-17.63-14.71H998.76c-13.3,5.31-22.64,17.76-22.64,32.26,0,19.33,16.57,35,37,35a37.61,37.61,0,0,0,30.2-14.77L1030,634.3A32,32,0,0,1,1008.4,643.5Zm-13.53-20.56A16.78,16.78,0,0,1,1009,611.6c20.57-2.3,17.86,5.49,17.86,5.49l-32.38,7.33A11.74,11.74,0,0,1,994.87,622.94Z"/><polygon points="998.76 609.26 1045.14 609.84 1045.14 595.17 998.76 595.17 998.76 609.26"/><rect x="636.07" y="594.78" width="16.7" height="65.61"/><path d="M579.75,594.78v36.93a32.33,32.33,0,0,0,15.42,27.91c.43.26.86.5,1.29.73V594.78Z"/><rect x="596.46" y="641.87" width="42.34" height="18.52"/><path d="M616.13,644.16s-19.67-2.54-19.67-18.54H592.3v21.67h23.53S615.88,643.92,616.13,644.16Z"/><path d="M380.65,556.63h25.54a50.2,50.2,0,0,1,26.15,7.16,38.37,38.37,0,0,1,11.37,10.15l-13,13c-.33-.38-.66-.75-1-1.11a36.65,36.65,0,0,0-26.79-11.32H379.34c-4.7-.25-7.36,1.66-8.87,3.91a10,10,0,0,0,2.95,13.8c10.12,6.81,33.08,8.15,44,8.5a31,31,0,0,1,17.82,6.14,29.87,29.87,0,0,1,4.69,4.45c9.24,10.87,8.93,26.8.18,38.08l-.14.18a35.28,35.28,0,0,1-27.8,13.28H386.53a39.27,39.27,0,0,1-35.89-23.11l-.09-.19,17.93-7.22s3.52,11.15,13.4,10.76h33.67a13.64,13.64,0,0,0,7.66-2.24,10.72,10.72,0,0,0,5-9.21c0-9.29-10.95-10.86-10.95-10.86l-39.65-4.36-.49-.06s-23.26-1-27.27-26.59a24.8,24.8,0,0,1-.09-4.39A30.79,30.79,0,0,1,380.65,556.63Z"/></g></g></svg>